<?xml version="1.0" encoding="UTF-8"?>
<svg id="Layer_1" data-name="Layer 1" xmlns="http://www.w3.org/2000/svg" version="1.1" viewBox="0 0 271.9 24.8" fill="white">
  <path class="cls-1" d="M8.7,0h6.1l8.7,24.1h-6.3l-1.4-4.3H7.4l-1.4,4.3H0L8.7,0ZM14.5,15.5l-1.8-5.8c-.4-1.3-.9-3.4-.9-3.4h0s-.6,2.2-1,3.4l-1.8,5.8h5.6-.1Z"/>
  <path class="cls-1" d="M24.1,18.2V6.8h5.4v10.2c0,1.9.8,2.9,2.6,2.9s3.1-1.4,3.1-3.4V6.8h5.5v17.3h-5.3v-2.1h0c-1.1,1.7-3.1,2.7-5.2,2.6-4,0-6.1-2.6-6.1-6.5h0Z"/>
  <path class="cls-1" d="M44.6,19.6v-9.3h-2.3v-3.4h2.3V1.4h5.4v5.4h3.1v3.5h-3.1v8.1c0,1.3.7,1.7,1.9,1.7h1.2v4c-1,.2-2,.3-3,.3-3.2,0-5.5-1.1-5.5-4.8Z"/>
  <path class="cls-1" d="M54.2,15.5c-.2-4.9,3.7-9,8.5-9.1h.7c4.9-.2,9,3.5,9.2,8.4v.8c.2,4.9-3.6,9-8.4,9.1h-.8c-4.9.2-9-3.5-9.2-8.4v-.7h0ZM67.1,15.5c0-3.1-1.3-5.3-3.7-5.3s-3.6,2.1-3.6,5.3,1.3,5.2,3.6,5.2,3.7-2.1,3.7-5.2Z"/>
  <path class="cls-1" d="M74.5,6.8h5.3v2.5h0c1-1.9,3-3.1,5.2-3,2.1,0,4,1.1,4.9,3h0c1.1-1.9,3.2-3.1,5.4-3,3.9,0,5.9,2.7,5.9,6.5v11.3h-5.5v-10.2c0-1.8-.8-2.9-2.4-2.9s-2.8,1.5-2.8,3.5v9.7h-5.5v-10.2c0-1.8-.8-2.9-2.4-2.9s-2.7,1.5-2.7,3.5v9.7h-5.5V6.8h0Z"/>
  <path class="cls-1" d="M103,15.5c0-5.1,4.1-9.2,9.2-9.2s9.2,4.1,9.2,9.2c-.2,5.1-4.4,9.1-9.5,8.9-4.9-.2-8.8-4.1-8.9-8.9h0ZM115.9,15.5c0-3.1-1.3-5.3-3.7-5.3s-3.6,2.1-3.6,5.3,1.2,5.2,3.6,5.2,3.7-2.1,3.7-5.2Z"/>
  <path class="cls-1" d="M124.3,19.6v-9.3h-2.3v-3.4h2.3V1.4h5.4v5.4h3.1v3.5h-3.1v8.1c0,1.3.7,1.7,1.9,1.7h1.2v4c-1,.2-2,.3-3,.3-3.2,0-5.5-1.1-5.5-4.8h0Z"/>
  <path class="cls-1" d="M134.8,0h5.5v4.5h-5.5V0ZM134.8,6.8h5.5v17.3h-5.5V6.8Z"/>
  <path class="cls-1" d="M141.6,6.8h5.7l2.3,7.8c.5,1.7.9,3.5.9,3.5h0s.4-1.8.9-3.5l2.4-7.8h5.5l-6,17.3h-5.9l-6-17.3h.2Z"/>
  <path class="cls-1" d="M159.2,15.5c0-5.2,3.6-9.1,8.9-9.1s4.3.7,5.9,2.2c2,1.9,3.1,4.9,3,8.4h-12.4c.3,2.3,1.6,3.8,3.9,3.8,1.2.1,2.4-.6,2.9-1.7h5.4c-.4,1.7-1.5,3.1-2.9,4.1-1.6,1.1-3.5,1.6-5.4,1.6-5.8,0-9.2-4-9.2-9.2h0ZM171.4,13.6c-.2-2-1.5-3.4-3.3-3.4s-3.2,1.3-3.5,3.4h6.8Z"/>
  <path class="cls-1" d="M183,0h6l2.4,10.1c.6,2.3,1.1,6,1.1,6h0s.6-3.3,1.2-5.7l2.3-10.4h5.5l2.3,10.3c.6,2.5,1.1,5.8,1.1,5.8h0s.7-3.6,1.2-6l2.5-10.1h6l-6.6,24.1h-5.9l-2.5-11.6c-.4-1.9-.8-4.5-.8-4.5h0s-.4,2.6-.8,4.5l-2.5,11.6h-5.9l-6.6-24.1Z"/>
  <path class="cls-1" d="M213.1,15.5c-.2-4.9,3.7-9,8.5-9.1h.7c4.9-.2,9,3.5,9.2,8.4v.8c.2,4.9-3.6,9-8.4,9.1h-.8c-4.9.2-9-3.6-9.2-8.4v-.7h0ZM226,15.5c0-3.1-1.3-5.3-3.7-5.3s-3.6,2.1-3.6,5.3,1.3,5.2,3.6,5.2,3.7-2.1,3.7-5.2Z"/>
  <path class="cls-1" d="M233.5,6.8h5.3v2.7h0c1.2-2,2.6-3,4.7-3s.7,0,1.1,0v4.7h-.1c-3.4-.5-5.5,1.2-5.5,4.9v7.8h-5.5V6.8h0Z"/>
  <path class="cls-1" d="M246.4,0h5.6v24.1h-5.6V0Z"/>
  <path class="cls-1" d="M253.9,15.5c0-5.4,3.1-9.1,7.6-9.1,1.9,0,3.8.8,4.9,2.5h0V0h5.5v24.1h-5.3v-2.3h0c-1,1.8-3,2.9-5.1,2.9-4.4,0-7.6-3.4-7.6-9.2ZM266.5,15.5c0-2.9-1.2-5-3.6-5s-3.5,2-3.5,4.9,1.3,4.9,3.4,4.9,3.6-2,3.6-4.9h.1Z"/>
</svg>