<svg xmlns="http://www.w3.org/2000/svg" viewBox="0 0 280 70"><defs><style>.a{fill:#231f20;}.b{fill:#007bb6;}.c{fill:#fff;}</style></defs><title>Artboard 1</title><polygon class="a" points="14.017 12.964 23.671 12.964 23.671 48.128 41.546 48.128 41.546 57.036 14.017 57.036 14.017 12.964 14.017 12.964"/><path class="a" d="M50.45,12.31076a5.37973,5.37973,0,1,1-5.37981,5.38047A5.38478,5.38478,0,0,1,50.45,12.31076M45.81015,27.15722h9.27968V57.02444H45.81015V27.15722Z"/><polygon class="a" points="93.879 12.961 103.155 12.961 103.155 39.302 113.663 27.144 125.036 27.144 112.866 40.973 124.782 57.036 113.121 57.036 103.276 42.272 103.155 42.272 103.155 57.036 93.879 57.036 93.879 12.961 93.879 12.961"/><path class="a" d="M60.222,27.16149h8.90739v4.08274h.12431A9.74545,9.74545,0,0,1,78.03679,26.42c9.40415,0,11.13565,6.18537,11.13565,14.22532V57.02444H79.893V42.50259c0-3.46543-.06389-7.91748-4.82768-7.91748-4.82377,0-5.56391,3.77423-5.56391,7.66962V57.02444H60.222V27.16149Z"/><path class="a" d="M152.42211,51.85341A16.33188,16.33188,0,0,1,139.74054,57.795c-9.27725,0-16.70088-6.18932-16.70088-15.77709,0-9.58674,7.42363-15.77194,16.70088-15.77194,8.667,0,14.10535,6.1852,14.10535,15.77194v2.90773H132.31907a6.92661,6.92661,0,0,0,6.98945,5.81517,7.91759,7.91759,0,0,0,6.61916-3.65059l6.49443,4.76319Zm-7.8539-13.23475a5.56384,5.56384,0,0,0-5.69517-5.69177,6.18728,6.18728,0,0,0-6.554,5.69177Z"/><path class="a" d="M189.13777,57.01966h-8.53883v-3.9602h-.12039a11.66937,11.66937,0,0,1-9.21989,4.70208c-8.91044,0-14.78639-6.431-14.78639-15.52552,0-8.35185,5.19579-16.0223,13.732-16.0223,3.83891,0,7.4258,1.05069,9.52976,3.95841h.12038V12.96077h9.28333V57.01966ZM173.17139,34.37971c-4.636,0-7.41883,3.0951-7.41883,7.6072,0,4.51971,2.78282,7.60869,7.41883,7.60869,4.643,0,7.42755-3.089,7.42755-7.60869,0-4.5121-2.78459-7.6072-7.42755-7.6072"/><path class="b" d="M256.37065,3.70786h-53.334a4.568,4.568,0,0,0-4.6195,4.50977V61.77649a4.57109,4.57109,0,0,0,4.6195,4.51564h53.334a4.57969,4.57969,0,0,0,4.63256-4.51564V8.21763a4.57657,4.57657,0,0,0-4.63256-4.50977Z"/><path class="c" d="M212.34,12.32414a5.38184,5.38184,0,1,1-5.38311,5.38047A5.38381,5.38381,0,0,1,212.34,12.32414m-4.64339,14.84647h9.2829V57.03792h-9.2829V27.17061Z"/><path class="c" d="M222.802,27.17061h8.90307v4.08107h.12429a9.75365,9.75365,0,0,1,8.7831-4.8236c9.3998,0,11.1352,6.1864,11.1352,14.22741V57.03792h-9.27637V42.51319c0-3.4633-.06345-7.91874-4.82335-7.91874-4.83029,0-5.57171,3.77293-5.57171,7.66831V57.03792H222.802V27.17061Z"/><polygon class="a" points="262.53 55.467 263.034 55.467 263.034 57.038 263.308 57.038 263.308 55.467 263.811 55.467 263.811 55.193 262.53 55.193 262.53 55.467 262.53 55.467"/><polygon class="a" points="265.594 55.193 265.055 56.547 264.517 55.193 264.127 55.193 264.127 57.038 264.399 57.038 264.399 55.634 264.964 57.038 265.146 57.038 265.711 55.634 265.711 57.038 265.983 57.038 265.983 55.193 265.594 55.193 265.594 55.193"/></svg>