<svg width="36" height="39" viewBox="0 0 36 39" fill="none" xmlns="http://www.w3.org/2000/svg">
<path fill-rule="evenodd" clip-rule="evenodd" d="M12.2761 3.74806C12.2772 3.72984 12.2784 3.71165 12.2798 3.6935C12.413 1.96169 13.8617 0.611328 15.6069 0.611328H20.3735C22.1248 0.611328 23.6065 1.95856 23.7142 3.7387L23.7144 3.74199L23.8524 5.9237C24.9156 6.37539 25.9089 6.95334 26.817 7.63063L28.7825 6.65248L28.788 6.64974C30.3487 5.87984 32.2725 6.43292 33.1597 7.97121L33.1614 7.97418L35.5545 12.1033C36.4352 13.634 35.9696 15.5738 34.5157 16.5504L34.5151 16.5508L27.5202 21.2519L25.5403 18.306L32.3819 13.7079L30.1859 9.91882L28.2703 10.8721L28.2658 10.8743C27.1924 11.4009 25.8374 11.3488 24.7982 10.5539M30.0855 9.74564L30.0848 9.74429ZM32.5358 13.6044L32.5365 13.604ZM12.2761 3.74806L12.2758 3.75179ZM12.2758 3.75179L12.2706 3.83523L12.1374 5.93923C11.0785 6.39851 10.0966 6.97546 9.19232 7.65057L7.22128 6.67893L7.21342 6.67508C5.63406 5.90618 3.73407 6.48529 2.85375 7.99442L2.85191 7.99759L0.44899 12.1365L0.445511 12.1425C-0.435313 13.6735 0.0305608 15.6136 1.48491 16.5901L2.95834 17.5794L4.93694 14.6325L3.61824 13.7471L5.82415 9.94754L7.744 10.8939C8.81801 11.4208 10.1739 11.3684 11.2133 10.5722L10.1341 9.16328L11.2116 10.5735C11.9696 9.9944 12.7901 9.51306 13.6741 9.1426L13.6789 9.1406L13.6837 9.13857C14.8784 8.62968 15.5904 7.49007 15.671 6.30175L15.8065 4.16082H20.1843L20.3187 6.284L20.3192 6.29194C20.4011 7.50083 21.1395 8.62752 22.3163 9.12876L22.3277 9.13361L22.3392 9.13831C23.2183 9.49832 24.0444 9.978 24.7982 10.5539M33.0417 21.4123L34.5151 22.4016C35.9694 23.3781 36.4353 25.3182 35.5545 26.8491L35.5519 26.8536L33.149 31.0023L33.1462 31.007C32.2659 32.5162 30.3659 33.0953 28.7866 32.3264L28.7787 32.3226L26.8077 31.3509C25.9034 32.026 24.9215 32.603 23.8626 33.0622L23.7242 35.2497L23.724 35.253C23.6176 37.0111 22.1568 38.3901 20.3931 38.3901H15.6265C13.8756 38.3901 12.3942 37.0435 12.2859 35.2639C12.2858 35.2624 12.2857 35.261 12.2856 35.2595L12.1475 33.0863C11.0882 32.6281 10.0944 32.0506 9.18301 31.3708L7.21747 32.349L7.21195 32.3517C5.65125 33.1217 3.72722 32.5685 2.84018 31.03L2.83862 31.0273L0.448326 26.9031L0.445511 26.8982C-0.435312 25.3672 0.0305599 23.4271 1.48491 22.4506L2.95834 21.4613L4.93694 24.4082L3.61812 25.2937L5.8141 29.0826L7.72965 28.1294L7.73419 28.1271C8.80761 27.6006 10.1626 27.6527 11.2018 28.4476C11.9555 29.0234 12.7852 29.506 13.6741 29.8785L13.6789 29.8805L13.6837 29.8825C14.8605 30.3837 15.5989 31.5104 15.6808 32.7193L15.6813 32.7268L15.8157 34.8406H20.1935L20.329 32.6997C20.4095 31.5114 21.1216 30.3718 22.3163 29.8629L22.3211 29.8609L22.3259 29.8589C23.2099 29.4884 24.0304 29.0071 24.7884 28.4279C25.8276 27.633 27.1826 27.5809 28.256 28.1075L28.2591 28.109L30.1757 29.0538L32.3819 25.2447L31.0631 24.3591L33.0417 21.4123Z" fill="url(#paint0_linear_242_1899)"/>
<path fill-rule="evenodd" clip-rule="evenodd" d="M3.80435 13.8688L10.3793 18.2993L8.39578 21.2429L1.82083 16.8123L3.80435 13.8688Z" fill="url(#paint1_linear_242_1899)"/>
<path fill-rule="evenodd" clip-rule="evenodd" d="M32.5162 25.3251L31.0369 24.3444C30.845 24.2172 30.5578 24.0269 30.2143 23.7992C29.2757 23.177 27.9161 22.2758 26.9281 21.6206L25.4491 20.6398L27.4108 17.6816L28.8898 18.6625C29.8776 19.3175 31.2367 20.2184 32.1754 20.8406C32.5189 21.0683 32.806 21.2586 32.9982 21.386L34.4774 22.3666L32.5162 25.3251Z" fill="url(#paint2_linear_242_1899)"/>
<path fill-rule="evenodd" clip-rule="evenodd" d="M3.90488 25.1178L5.37496 24.1235C5.93775 23.7429 6.77943 23.1737 7.78624 22.4929C10.5383 20.6318 14.5243 17.9363 17.4208 15.9766L18.8908 14.9821L16.9017 12.0422L15.4318 13.0367C12.5357 14.9962 8.5505 17.6911 5.79844 19.5522C4.79141 20.2332 3.94949 20.8026 3.38644 21.1834L1.91635 22.1776L3.90488 25.1178Z" fill="url(#paint3_linear_242_1899)"/>
<path fill-rule="evenodd" clip-rule="evenodd" d="M31.1161 14.5542L29.6461 15.5486C29.0833 15.9292 28.2417 16.4984 27.2349 17.1794C24.4829 19.0406 20.4971 21.7363 17.6007 23.6962L16.1308 24.6908L18.12 27.6306L19.5899 26.636C22.4859 24.6763 26.4709 21.9812 29.2229 20.1199C30.2299 19.4388 31.0718 18.8694 31.6348 18.4886L33.1048 17.4943L31.1161 14.5542Z" fill="url(#paint4_linear_242_1899)"/>
<defs>
<linearGradient id="paint0_linear_242_1899" x1="26.4293" y1="5.47793" x2="-1.17295" y2="36.6154" gradientUnits="userSpaceOnUse">
<stop stop-color="#FF6B00"/>
<stop offset="1" stop-color="#F819C7"/>
</linearGradient>
<linearGradient id="paint1_linear_242_1899" x1="6.51307" y1="17.9265" x2="3.97707" y2="16.2847" gradientUnits="userSpaceOnUse">
<stop stop-color="#FC3D70" stop-opacity="0"/>
<stop offset="1" stop-color="#FC3D70"/>
</linearGradient>
<linearGradient id="paint2_linear_242_1899" x1="29.7041" y1="20.7543" x2="32.3521" y2="22.6256" gradientUnits="userSpaceOnUse">
<stop stop-color="#FE592D" stop-opacity="0"/>
<stop offset="1" stop-color="#FE592D"/>
</linearGradient>
<linearGradient id="paint3_linear_242_1899" x1="15.9399" y1="14.1163" x2="11.5324" y2="17.1652" gradientUnits="userSpaceOnUse">
<stop stop-color="#FB318D" stop-opacity="0"/>
<stop offset="1" stop-color="#FB318D"/>
</linearGradient>
<linearGradient id="paint4_linear_242_1899" x1="19.0818" y1="25.5564" x2="23.489" y2="22.5072" gradientUnits="userSpaceOnUse">
<stop stop-color="#FF6414" stop-opacity="0"/>
<stop offset="1" stop-color="#FF6414"/>
</linearGradient>
</defs>
</svg>
