<svg width="36" height="33" viewBox="0 0 36 33" fill="none" xmlns="http://www.w3.org/2000/svg">
<path fill-rule="evenodd" clip-rule="evenodd" d="M8.84848 23.6997C7.75041 22.7738 6.14928 22.5878 4.83788 23.345L3.29097 20.6656C5.76667 19.2363 8.78008 19.5952 10.8428 21.3345L8.84848 23.6997Z" fill="url(#paint0_linear_242_1871)"/>
<path fill-rule="evenodd" clip-rule="evenodd" d="M25.9513 25.7505C25.6985 27.1644 26.338 28.644 27.6494 29.4011L26.1025 32.0805C23.6268 30.6511 22.4309 27.862 22.9058 25.206L25.9513 25.7505Z" fill="url(#paint1_linear_242_1871)"/>
<path fill-rule="evenodd" clip-rule="evenodd" d="M19.1904 9.92482C20.5413 9.43679 21.503 8.14318 21.503 6.62891L24.5968 6.62891C24.5968 9.48759 22.7792 11.9178 20.2416 12.8346L19.1904 9.92482Z" fill="url(#paint2_linear_242_1871)"/>
<path fill-rule="evenodd" clip-rule="evenodd" d="M18.0001 3.12507C16.066 3.12507 14.498 4.69299 14.498 6.62711C14.498 8.32726 15.7111 9.74749 17.3196 10.0634C18.3945 10.2745 19.547 11.2045 19.547 12.6605L19.547 18.8925L24.6226 21.8229C26.6742 19.6629 30.0066 19.1013 32.701 20.6569C35.8557 22.4783 36.9366 26.5123 35.1152 29.667C33.2938 32.8218 29.2599 33.9027 26.1051 32.0813L27.652 29.402C29.327 30.369 31.4688 29.7951 32.4359 28.1201C33.403 26.4451 32.8291 24.3033 31.1541 23.3362C29.6817 22.4862 27.8452 22.8266 26.7673 24.0617C26.0471 24.887 24.6654 25.42 23.4045 24.6921L18.0025 21.5732L12.9243 24.5051C13.7691 27.3618 12.5892 30.5286 9.89489 32.0842C6.74014 33.9056 2.70618 32.8247 0.884778 29.6699C-0.936618 26.5152 0.144281 22.4812 3.29903 20.6598L4.84594 23.3391C3.17094 24.3062 2.59704 26.448 3.5641 28.123C4.53116 29.798 6.67298 30.3719 8.34798 29.4048C9.82036 28.5548 10.4438 26.7941 9.91309 25.2431C9.55846 24.2067 9.78768 22.7436 11.0486 22.0156L16.4532 18.8953L16.4532 13.0402C13.5568 12.3435 11.4042 9.73827 11.4042 6.62711C11.4042 2.98432 14.3573 0.0312503 18.0001 0.0312503C21.6429 0.0312504 24.5959 2.98432 24.5959 6.62711L21.5021 6.62711C21.5021 4.69299 19.9342 3.12507 18.0001 3.12507Z" fill="url(#paint3_radial_242_1871)"/>
<defs>
<linearGradient id="paint0_linear_242_1871" x1="5.39372" y1="22.2612" x2="8.28882" y2="23.9614" gradientUnits="userSpaceOnUse">
<stop stop-color="#FE5636"/>
<stop offset="1" stop-color="#FE5A2B" stop-opacity="0"/>
</linearGradient>
<linearGradient id="paint1_linear_242_1871" x1="27.1129" y1="29.4274" x2="26.9828" y2="25.9679" gradientUnits="userSpaceOnUse">
<stop stop-color="#FE5A2B"/>
<stop offset="1" stop-color="#FE5A2B" stop-opacity="0"/>
</linearGradient>
<linearGradient id="paint2_linear_242_1871" x1="22.3179" y1="7.77213" x2="19.2788" y2="9.90384" gradientUnits="userSpaceOnUse">
<stop stop-color="#FE5A2B"/>
<stop offset="1" stop-color="#FE5A2B" stop-opacity="0"/>
</linearGradient>
<radialGradient id="paint3_radial_242_1871" cx="0" cy="0" r="1" gradientUnits="userSpaceOnUse" gradientTransform="translate(18.1919 19.3562) rotate(90) scale(17.9208 19.5288)">
<stop stop-color="#F819C7"/>
<stop offset="1" stop-color="#FF6B00"/>
</radialGradient>
</defs>
</svg>
