<svg width="36" height="25" viewBox="0 0 36 25" fill="none" xmlns="http://www.w3.org/2000/svg">
<path fill-rule="evenodd" clip-rule="evenodd" d="M2.75873 4.73633L2.75873 12.4578L0.000488619 12.4578L0.000488281 4.73633L2.75873 4.73633Z" fill="url(#paint0_linear_242_1881)"/>
<path fill-rule="evenodd" clip-rule="evenodd" d="M31.8357 5.98546L25.7255 9.46075L24.3618 7.06317L30.4721 3.58789L31.8357 5.98546Z" fill="url(#paint1_linear_242_1881)"/>
<path fill-rule="evenodd" clip-rule="evenodd" d="M1.49964 4.60968C-0.405356 3.50833 0.375997 0.595703 2.57645 0.595703L32.304 0.59571C34.3452 0.595711 36 2.25048 36 4.29174V20.7085C36 22.7497 34.3452 24.4045 32.304 24.4045H3.69603C1.65477 24.4045 0 22.7498 0 20.7085V12.4538H2.75824V20.7085C2.75824 21.2264 3.1781 21.6463 3.69603 21.6463H32.304C32.8219 21.6463 33.2418 21.2264 33.2418 20.7085V4.29174C33.2418 3.77381 32.8219 3.35395 32.304 3.35395L4.83846 3.35394L17.2881 10.5515C17.5764 10.7182 17.9314 10.7195 18.2209 10.5549L24.3637 7.06326L25.7267 9.46118L19.5839 12.9529C18.443 13.6014 17.0437 13.5963 15.9076 12.9394L1.49964 4.60968Z" fill="url(#paint2_linear_242_1881)"/>
<defs>
<linearGradient id="paint0_linear_242_1881" x1="1.70567" y1="5.84462" x2="1.70567" y2="12.4578" gradientUnits="userSpaceOnUse">
<stop stop-color="#FE5A2B" stop-opacity="0"/>
<stop offset="1" stop-color="#FE5A2B"/>
</linearGradient>
<linearGradient id="paint1_linear_242_1881" x1="25.2773" y1="7.80179" x2="29.0198" y2="5.39588" gradientUnits="userSpaceOnUse">
<stop stop-color="#FB387E"/>
<stop offset="1" stop-color="#FB387E" stop-opacity="0"/>
</linearGradient>
<linearGradient id="paint2_linear_242_1881" x1="-1.42743" y1="2.31071" x2="33.0659" y2="22.1468" gradientUnits="userSpaceOnUse">
<stop stop-color="#FF6B00"/>
<stop offset="1" stop-color="#F819C7"/>
</linearGradient>
</defs>
</svg>
