<svg width="36" height="25" viewBox="0 0 36 25" fill="none" xmlns="http://www.w3.org/2000/svg">
<path fill-rule="evenodd" clip-rule="evenodd" d="M6.51719 9.88994C6.51719 4.4872 10.897 0.107422 16.2997 0.107422C20.5853 0.107422 24.2243 2.86231 25.5482 6.69492C25.9646 6.63884 26.4043 6.60889 26.8573 6.60889C31.9067 6.60889 36 10.7022 36 15.7516C36 20.801 31.9067 24.8943 26.8573 24.8943C22.941 24.8943 19.8851 24.8918 16.8325 24.8893L16.8196 24.8893C13.7714 24.8868 10.7253 24.8843 6.82729 24.8843C3.05668 24.8843 0 21.8276 0 18.057H2.59706C2.59706 20.3933 4.491 22.2872 6.82729 22.2872C10.7317 22.2872 13.7817 22.2897 16.834 22.2922H16.8347C19.8872 22.2947 22.9422 22.2972 26.8573 22.2972C30.4724 22.2972 33.4029 19.3667 33.4029 15.7516C33.4029 12.1365 30.4724 9.20595 26.8573 9.20595C26.2691 9.20595 25.7364 9.27344 25.3027 9.37875C24.538 9.56441 23.686 9.17759 23.3854 8.364L23.177 7.80005L23.1665 7.76627C22.2607 4.8332 19.5271 2.70448 16.2997 2.70448C12.3313 2.70448 9.11425 5.92152 9.11425 9.88994H6.51719Z" fill="url(#paint0_linear_242_1890)"/>
<path fill-rule="evenodd" clip-rule="evenodd" d="M6.6088 11.2358C6.54838 10.7963 6.51719 10.3479 6.51719 9.89258H9.11425C9.11425 10.7376 9.25956 11.5458 9.52549 12.2955L10.3587 14.6445L7.95619 13.9813C7.59828 13.8826 7.22003 13.8294 6.82729 13.8294C4.491 13.8294 2.59706 15.7233 2.59706 18.0596H0C0 14.3621 2.93931 11.3511 6.6088 11.2358Z" fill="url(#paint1_linear_242_1890)"/>
<g clip-path="url(#paint2_angular_242_1890_clip_path)" data-figma-skip-parse="true"><g transform="matrix(-0.00564824 0.00105059 -0.00108297 -0.00579503 16.4048 9.45415)"><foreignObject x="-3149.3" y="-3149.3" width="6298.59" height="6298.59"><div xmlns="http://www.w3.org/1999/xhtml" style="background:conic-gradient(from 90deg,rgba(255, 107, 0, 1) 0deg,rgba(255, 107, 0, 1) 50.2287deg,rgba(252, 72, 87, 1) 162.595deg,rgba(255, 107, 0, 0) 283.747deg,rgba(255, 107, 0, 1) 335.887deg,rgba(255, 107, 0, 1) 360deg);height:100%;width:100%;opacity:1"></div></foreignObject></g></g><path fill-rule="evenodd" clip-rule="evenodd" d="M16.2956 2.70448C12.3306 2.70448 9.12147 5.91043 9.12147 9.85875C9.12147 13.8071 12.3306 17.013 16.2956 17.013V19.6101C10.902 19.6101 6.52441 15.2471 6.52441 9.85875C6.52441 4.47036 10.902 0.107422 16.2956 0.107422C19.9125 0.107422 23.07 2.06943 24.7582 4.981L22.5115 6.2837C21.2698 4.14218 18.951 2.70448 16.2956 2.70448Z" data-figma-gradient-fill="{&#34;type&#34;:&#34;GRADIENT_ANGULAR&#34;,&#34;stops&#34;:[{&#34;color&#34;:{&#34;r&#34;:1.0,&#34;g&#34;:0.42078351974487305,&#34;b&#34;:0.0013509114505723119,&#34;a&#34;:1.0},&#34;position&#34;:0.13952423632144928},{&#34;color&#34;:{&#34;r&#34;:0.98823529481887817,&#34;g&#34;:0.28235295414924622,&#34;b&#34;:0.34117648005485535,&#34;a&#34;:1.0},&#34;position&#34;:0.45165339112281799},{&#34;color&#34;:{&#34;r&#34;:1.0,&#34;g&#34;:0.41960784792900085,&#34;b&#34;:0.0,&#34;a&#34;:0.0},&#34;position&#34;:0.78818517923355103},{&#34;color&#34;:{&#34;r&#34;:1.0,&#34;g&#34;:0.42078351974487305,&#34;b&#34;:0.0013509114505723119,&#34;a&#34;:1.0},&#34;position&#34;:0.93301880359649658}],&#34;stopsVar&#34;:[{&#34;color&#34;:{&#34;r&#34;:1.0,&#34;g&#34;:0.42078351974487305,&#34;b&#34;:0.0013509114505723119,&#34;a&#34;:1.0},&#34;position&#34;:0.13952423632144928},{&#34;color&#34;:{&#34;r&#34;:0.98823529481887817,&#34;g&#34;:0.28235295414924622,&#34;b&#34;:0.34117648005485535,&#34;a&#34;:1.0},&#34;position&#34;:0.45165339112281799},{&#34;color&#34;:{&#34;r&#34;:1.0,&#34;g&#34;:0.41960784792900085,&#34;b&#34;:0.0,&#34;a&#34;:0.0},&#34;position&#34;:0.78818517923355103},{&#34;color&#34;:{&#34;r&#34;:1.0,&#34;g&#34;:0.42078351974487305,&#34;b&#34;:0.0013509114505723119,&#34;a&#34;:1.0},&#34;position&#34;:0.93301880359649658}],&#34;transform&#34;:{&#34;m00&#34;:-11.296481132507324,&#34;m01&#34;:-2.1659419536590576,&#34;m02&#34;:23.135972976684570,&#34;m10&#34;:2.1011736392974854,&#34;m11&#34;:-11.590058326721191,&#34;m12&#34;:14.198590278625488},&#34;opacity&#34;:1.0,&#34;blendMode&#34;:&#34;NORMAL&#34;,&#34;visible&#34;:true}"/>
<defs>
<clipPath id="paint2_angular_242_1890_clip_path"><path fill-rule="evenodd" clip-rule="evenodd" d="M16.2956 2.70448C12.3306 2.70448 9.12147 5.91043 9.12147 9.85875C9.12147 13.8071 12.3306 17.013 16.2956 17.013V19.6101C10.902 19.6101 6.52441 15.2471 6.52441 9.85875C6.52441 4.47036 10.902 0.107422 16.2956 0.107422C19.9125 0.107422 23.07 2.06943 24.7582 4.981L22.5115 6.2837C21.2698 4.14218 18.951 2.70448 16.2956 2.70448Z"/></clipPath><linearGradient id="paint0_linear_242_1890" x1="5.84724" y1="7.49513" x2="34.7015" y2="24.5899" gradientUnits="userSpaceOnUse">
<stop stop-color="#FF6B00"/>
<stop offset="1" stop-color="#F819C7"/>
</linearGradient>
<linearGradient id="paint1_linear_242_1890" x1="1.91894" y1="17.794" x2="6.29499" y2="15.0419" gradientUnits="userSpaceOnUse">
<stop stop-color="#FF6B00"/>
<stop offset="1" stop-color="#FF6B00" stop-opacity="0"/>
</linearGradient>
</defs>
</svg>
