<svg width="36" height="27" viewBox="0 0 36 27" fill="none" xmlns="http://www.w3.org/2000/svg">
<path fill-rule="evenodd" clip-rule="evenodd" d="M25.1456 19.9395L25.1456 23.0201L22.3047 23.0201L22.3047 19.9395L25.1456 19.9395Z" fill="url(#paint0_linear_242_1921)"/>
<path fill-rule="evenodd" clip-rule="evenodd" d="M27.7318 7.30078L27.7318 3.66353L30.5728 3.66353L30.5728 7.30078L27.7318 7.30078Z" fill="url(#paint1_linear_242_1921)"/>
<path fill-rule="evenodd" clip-rule="evenodd" d="M0 3.67547C0 2.10185 1.27567 0.826172 2.8493 0.826172H27.7305C29.3042 0.826172 30.5798 2.10185 30.5798 3.67547H27.7389C27.7389 3.67416 27.7388 3.6729 27.7388 3.6729C27.7388 3.6729 27.7382 3.67135 27.7364 3.66957C27.7354 3.66849 27.7339 3.66751 27.7339 3.66751V3.66751L27.7331 3.66723L27.7322 3.66717L27.7305 3.66713H2.8493C2.84799 3.66713 2.84673 3.66723 2.84673 3.66723C2.84673 3.66723 2.84512 3.66785 2.8434 3.66957C2.842 3.67096 2.84111 3.67249 2.84111 3.67249C2.84111 3.67249 2.84097 3.67397 2.84096 3.67503V3.67503L2.87172 17.5118C2.87171 17.5131 2.87182 17.5144 2.87182 17.5144C2.87182 17.5144 2.87276 17.5163 2.87415 17.5177C2.87555 17.5191 2.87708 17.52 2.87708 17.52C2.87708 17.52 2.87875 17.5201 2.88006 17.5201H22.0069C22.1752 17.5201 22.3116 17.3837 22.3116 17.2155V10.7144C22.3116 9.13592 23.5912 7.8563 25.1697 7.8563H33.1419C34.7204 7.8563 36 9.13592 36 10.7144V23.3174C36 24.8959 34.7204 26.1755 33.1419 26.1755H25.1652C23.5867 26.1755 22.3071 24.8959 22.3071 23.3174V22.9729H25.148V23.3174C25.148 23.3204 25.1484 23.3223 25.1484 23.3223L25.1488 23.3236C25.1492 23.3246 25.1505 23.3269 25.1531 23.3295C25.1556 23.3321 25.1579 23.3333 25.1589 23.3338L25.1602 23.3342L25.1615 23.3344C25.1615 23.3344 25.1635 23.3345 25.1652 23.3345H33.1419C33.1449 23.3345 33.1468 23.3342 33.1468 23.3342L33.1481 23.3338C33.1492 23.3333 33.1514 23.3321 33.154 23.3295C33.1566 23.3269 33.1579 23.3246 33.1583 23.3236L33.1587 23.3223C33.1587 23.3223 33.159 23.3204 33.159 23.3174V10.7144C33.159 10.7114 33.1587 10.7095 33.1587 10.7095L33.1583 10.7082C33.1578 10.7071 33.1566 10.7049 33.154 10.7023C33.1514 10.6997 33.1492 10.6985 33.1481 10.698L33.1468 10.6976C33.1468 10.6976 33.1449 10.6973 33.1419 10.6973H25.1697C25.1667 10.6973 25.1648 10.6976 25.1648 10.6976L25.1635 10.698C25.1625 10.6985 25.1602 10.6997 25.1576 10.7023C25.155 10.7049 25.1538 10.7071 25.1533 10.7082L25.1529 10.7095C25.1529 10.7095 25.1526 10.7114 25.1526 10.7144V17.2155C25.1526 18.9527 23.7442 20.3611 22.0069 20.3611H2.88006C1.30704 20.3611 0.0317508 19.0864 0.0307593 17.5136L0.0307622 17.515L1.45124 17.5118H0.0307587" fill="url(#paint2_linear_242_1921)"/>
<defs>
<linearGradient id="paint0_linear_242_1921" x1="24.3537" y1="20.9264" x2="24.3537" y2="22.9194" gradientUnits="userSpaceOnUse">
<stop offset="0.118529" stop-color="#FB377F" stop-opacity="0"/>
<stop offset="1" stop-color="#F91EBC"/>
</linearGradient>
<linearGradient id="paint1_linear_242_1921" x1="28.8979" y1="7.07525" x2="28.8979" y2="3.66353" gradientUnits="userSpaceOnUse">
<stop stop-color="#FB377F" stop-opacity="0"/>
<stop offset="1" stop-color="#FB377F"/>
</linearGradient>
<linearGradient id="paint2_linear_242_1921" x1="3.97272" y1="1.10023" x2="26.5878" y2="22.0765" gradientUnits="userSpaceOnUse">
<stop stop-color="#FF6809"/>
<stop offset="1" stop-color="#F819C7"/>
</linearGradient>
</defs>
</svg>
