<svg width="24" height="14" viewBox="0 0 24 14" fill="none" xmlns="http://www.w3.org/2000/svg">
<g clip-path="url(#clip0_338_1801)">
<path d="M6.6155 5.10902C6.6155 5.39363 6.64613 5.6244 6.69972 5.79363C6.76098 5.96286 6.83755 6.14747 6.94475 6.34747C6.98303 6.40901 6.99835 6.47056 6.99835 6.5244C6.99835 6.60132 6.95241 6.67825 6.85286 6.75517L6.37048 7.07825C6.30157 7.1244 6.23265 7.14748 6.1714 7.14748C6.09483 7.14748 6.01826 7.10902 5.9417 7.03978C5.8345 6.9244 5.74262 6.80132 5.66605 6.67825C5.58948 6.54748 5.51291 6.40133 5.42868 6.2244C4.83145 6.93209 4.08108 7.28594 3.17757 7.28594C2.53439 7.28594 2.02138 7.10132 1.6462 6.73209C1.27101 6.36286 1.07959 5.87055 1.07959 5.25517C1.07959 4.60132 1.30929 4.07055 1.77636 3.67056C2.24343 3.27055 2.86364 3.07055 3.6523 3.07055C3.91263 3.07055 4.18062 3.09363 4.46392 3.13209C4.74722 3.17055 5.03819 3.23209 5.34446 3.30132V2.73978C5.34446 2.15516 5.22195 1.74748 4.98459 1.50901C4.73957 1.27055 4.3261 1.15517 3.73652 1.15517C3.46853 1.15517 3.19288 1.18594 2.90958 1.25517C2.62627 1.3244 2.35063 1.40901 2.08264 1.51671C1.96013 1.57056 1.86825 1.60132 1.81465 1.61671C1.76105 1.63209 1.72277 1.63979 1.69214 1.63979C1.58494 1.63979 1.53135 1.56286 1.53135 1.40132V1.0244C1.53135 0.901325 1.54666 0.80901 1.58494 0.755168C1.62323 0.701321 1.69214 0.647476 1.79933 0.59363C2.06733 0.455168 2.38891 0.339783 2.7641 0.247476C3.13929 0.147476 3.53745 0.101322 3.95857 0.101322C4.86974 0.101322 5.53589 0.309014 5.96467 0.724399C6.3858 1.13978 6.60019 1.77055 6.60019 2.61671V5.10902H6.6155ZM3.50682 6.27824C3.75949 6.27824 4.01982 6.23209 4.29547 6.13978C4.57112 6.04748 4.81613 5.87825 5.02287 5.64747C5.14538 5.50132 5.23727 5.33978 5.28321 5.15517C5.32915 4.97055 5.35977 4.74747 5.35977 4.48594V4.16286C5.13773 4.10901 4.90037 4.06286 4.65534 4.03209C4.41033 4.00132 4.17297 3.98594 3.9356 3.98594C3.42259 3.98594 3.0474 4.08594 2.79473 4.29363C2.54205 4.50132 2.41954 4.79363 2.41954 5.17825C2.41954 5.53978 2.51142 5.80902 2.70284 5.99363C2.88661 6.18594 3.1546 6.27824 3.50682 6.27824ZM9.65531 7.10902C9.51743 7.10902 9.42561 7.08593 9.36429 7.03209C9.30305 6.98593 9.24948 6.87824 9.20349 6.73209L7.40415 0.785934C7.35821 0.632091 7.33524 0.532091 7.33524 0.478245C7.33524 0.355168 7.3965 0.285937 7.51901 0.285937H8.26935C8.4149 0.285937 8.51438 0.309014 8.56803 0.362861C8.62927 0.409014 8.67518 0.516707 8.72117 0.66286L10.0075 5.75517L11.202 0.66286C11.2402 0.509014 11.2861 0.409014 11.3475 0.362861C11.4087 0.316706 11.5159 0.285937 11.6537 0.285937H12.2663C12.4117 0.285937 12.5113 0.309014 12.5725 0.362861C12.6338 0.409014 12.6874 0.516707 12.718 0.66286L13.9278 5.81671L15.2524 0.66286C15.2984 0.509014 15.352 0.409014 15.4056 0.362861C15.4668 0.316706 15.5664 0.285937 15.7042 0.285937H16.4163C16.5388 0.285937 16.6077 0.347475 16.6077 0.478245C16.6077 0.516707 16.6001 0.555168 16.5924 0.601322C16.5847 0.647476 16.5694 0.709014 16.5388 0.793626L14.6935 6.73978C14.6475 6.89363 14.594 6.99363 14.5327 7.03978C14.4714 7.08593 14.3719 7.1167 14.2417 7.1167H13.5833C13.4378 7.1167 13.3382 7.09363 13.277 7.03978C13.2157 6.98593 13.1621 6.88594 13.1315 6.73209L11.9447 1.77055L10.7655 6.7244C10.7273 6.87824 10.6813 6.97824 10.62 7.03209C10.5588 7.08593 10.4516 7.10902 10.3138 7.10902H9.65531ZM19.4943 7.31671C19.0962 7.31671 18.698 7.27055 18.3152 7.17825C17.9324 7.08594 17.6337 6.98593 17.4346 6.87055C17.3122 6.80132 17.2279 6.7244 17.1973 6.65517C17.1667 6.58594 17.1514 6.50902 17.1514 6.43979V6.04748C17.1514 5.88594 17.2126 5.80902 17.3274 5.80902C17.3734 5.80902 17.4193 5.81671 17.4653 5.83209C17.5112 5.84748 17.5801 5.87825 17.6567 5.90902C17.917 6.0244 18.2003 6.11671 18.4989 6.17824C18.8052 6.23978 19.1038 6.27055 19.4101 6.27055C19.8925 6.27055 20.2676 6.18594 20.528 6.01671C20.7884 5.84748 20.9262 5.60132 20.9262 5.28594C20.9262 5.07056 20.8573 4.89363 20.7195 4.74747C20.5816 4.60132 20.3213 4.47055 19.9461 4.34748L18.8359 4.00132C18.2769 3.8244 17.8635 3.56286 17.6108 3.21671C17.3581 2.87824 17.2279 2.50132 17.2279 2.10132C17.2279 1.77825 17.2968 1.49363 17.4346 1.24747C17.5724 1.00132 17.7562 0.785934 17.9859 0.616706C18.2156 0.439784 18.476 0.309014 18.7823 0.216707C19.0885 0.124399 19.4101 0.0859375 19.747 0.0859375C19.9155 0.0859375 20.0916 0.0936297 20.2601 0.116706C20.4361 0.139783 20.5969 0.170553 20.7577 0.201322C20.9108 0.239783 21.0563 0.278245 21.1941 0.324399C21.332 0.370553 21.4392 0.416706 21.5157 0.46286C21.6229 0.524399 21.6995 0.585937 21.7454 0.655168C21.7914 0.716707 21.8143 0.801318 21.8143 0.909017V1.27055C21.8143 1.43209 21.7531 1.51671 21.6383 1.51671C21.577 1.51671 21.4775 1.48593 21.3473 1.4244C20.9108 1.2244 20.4208 1.1244 19.8771 1.1244C19.4407 1.1244 19.0962 1.19363 18.8588 1.33978C18.6215 1.48593 18.4989 1.70902 18.4989 2.0244C18.4989 2.23979 18.5755 2.4244 18.7286 2.57055C18.8818 2.7167 19.1651 2.86286 19.5709 2.99363L20.6581 3.33978C21.2095 3.5167 21.6076 3.76286 21.845 4.07824C22.0824 4.39363 22.1972 4.75517 22.1972 5.15517C22.1972 5.48594 22.1283 5.78594 21.9981 6.04748C21.8603 6.30901 21.6765 6.53979 21.4392 6.7244C21.2018 6.9167 20.9185 7.05516 20.5892 7.15517C20.2447 7.26286 19.8848 7.31671 19.4943 7.31671Z" fill="#252F3E"/>
<path fill-rule="evenodd" clip-rule="evenodd" d="M20.9417 11.0531C18.4226 12.9223 14.7626 13.9146 11.6157 13.9146C7.20532 13.9146 3.23141 12.2761 0.22992 9.55306C-0.00744232 9.3377 0.20695 9.04541 0.490254 9.21457C3.73676 11.1069 7.7413 12.253 11.8836 12.253C14.6784 12.253 17.7489 11.6685 20.5742 10.4684C20.9954 10.2762 21.3552 10.7454 20.9417 11.0531Z" fill="#FF9900"/>
<path fill-rule="evenodd" clip-rule="evenodd" d="M21.9907 9.85377C21.6691 9.43844 19.862 9.6538 19.0428 9.75375C18.7977 9.78455 18.7594 9.56918 18.9814 9.40764C20.421 8.39225 22.7869 8.68454 23.0626 9.02303C23.3382 9.36914 22.986 11.7461 21.6384 12.8845C21.4317 13.0615 21.2326 12.9692 21.3245 12.7384C21.6307 11.9769 22.3122 10.2615 21.9907 9.85377Z" fill="#FF9900"/>
</g>
<defs>
<clipPath id="clip0_338_1801">
<rect width="24" height="14" fill="white"/>
</clipPath>
</defs>
</svg>
