<svg width="14" height="15" viewBox="0 0 14 15" fill="none" xmlns="http://www.w3.org/2000/svg">
    <mask id="mask0_8319_2038" style="mask-type:luminance" maskUnits="userSpaceOnUse" x="0" y="0" width="14" height="15">
        <path d="M13.8656 5.82317H7.14912V8.57197H11.0084C10.9464 8.96099 10.8071 9.34368 10.6031 9.69263C10.3693 10.0924 10.0804 10.3968 9.78422 10.6286C8.89706 11.323 7.86275 11.4649 7.14443 11.4649C5.32986 11.4649 3.77944 10.2671 3.17923 8.63943C3.15501 8.58037 3.13893 8.51935 3.11934 8.45905C2.98671 8.04479 2.91424 7.60605 2.91424 7.15005C2.91424 6.67547 2.99272 6.22118 3.1358 5.79213C3.7002 4.09994 5.28558 2.83604 7.14573 2.83604C7.51988 2.83604 7.88018 2.88153 8.22186 2.97226C9.00273 3.1796 9.55508 3.58798 9.89354 3.91099L11.9357 1.86828C10.6935 0.70493 9.07406 1.75891e-09 7.14234 1.75891e-09C5.59805 -3.39482e-05 4.17229 0.491404 3.00393 1.32195C2.05643 1.9955 1.27935 2.8973 0.754906 3.94464C0.267103 4.91574 0 5.9919 0 7.14897C0 8.3061 0.267511 9.39345 0.755316 10.3556V10.362C1.27056 11.3835 2.02402 12.2629 2.93977 12.9334C3.73978 13.5191 5.17426 14.2992 7.14234 14.2992C8.27412 14.2992 9.2772 14.0908 10.1618 13.7002C10.8 13.4184 11.3654 13.0509 11.8773 12.5786C12.5537 11.9545 13.0834 11.1826 13.445 10.2945C13.8066 9.40639 14 8.40208 14 7.31324C14 6.80615 13.9501 6.29117 13.8656 5.82312V5.82317Z" fill="white"/>
    </mask>
    <g mask="url(#mask0_8319_2038)">
        <g filter="url(#filter0_f_8319_2038)">
            <path d="M-0.103027 7.19751C-0.0956035 8.33638 0.222123 9.51141 0.703054 10.46V10.4665C1.05055 11.1554 1.52548 11.6995 2.06641 12.2387L5.33351 11.0211C4.7154 10.7004 4.62108 10.5039 4.17799 10.1453C3.72519 9.67899 3.38772 9.14363 3.17755 8.51589H3.16909L3.17755 8.50936C3.03929 8.09483 3.02565 7.65481 3.02055 7.19751H-0.103027Z" fill="url(#paint0_radial_8319_2038)"/>
        </g>
        <g filter="url(#filter1_f_8319_2038)">
            <path d="M7.14924 -0.052002C6.82632 1.1067 6.94979 2.23301 7.14924 2.88834C7.52213 2.88862 7.88136 2.93402 8.22197 3.02447C9.00284 3.23181 9.55513 3.6402 9.89358 3.96321L11.9881 1.86832C10.7473 0.70635 9.25408 -0.0501712 7.14924 -0.052002Z" fill="url(#paint1_radial_8319_2038)"/>
        </g>
        <g filter="url(#filter2_f_8319_2038)">
            <path d="M7.14238 -0.0610352C5.55844 -0.0610701 4.09609 0.442985 2.89774 1.29486C2.45279 1.61116 2.04447 1.97653 1.68089 2.38284C1.58564 3.29553 2.39391 4.41731 3.99453 4.40802C4.77114 3.48534 5.91974 2.88836 7.19812 2.88836C7.19929 2.88836 7.20043 2.88846 7.20159 2.88847L7.14938 -0.0608264C7.14702 -0.0608279 7.14474 -0.0610352 7.14238 -0.0610352Z" fill="url(#paint2_radial_8319_2038)"/>
        </g>
        <g filter="url(#filter3_f_8319_2038)">
            <path d="M12.3702 7.52775L10.9564 8.51975C10.8944 8.90877 10.755 9.29146 10.551 9.64041C10.3172 10.0402 10.0283 10.3446 9.73214 10.5764C8.84682 11.2693 7.81524 11.412 7.09711 11.4126C6.35485 12.7038 6.22472 13.3505 7.14932 14.3927C8.29341 14.3918 9.3077 14.1809 10.2024 13.7859C10.8491 13.5003 11.4221 13.1279 11.9408 12.6492C12.6263 12.0168 13.1632 11.2345 13.5297 10.3344C13.8961 9.43441 14.092 8.41668 14.092 7.31323L12.3702 7.52775Z" fill="url(#paint3_radial_8319_2038)"/>
        </g>
        <g filter="url(#filter4_f_8319_2038)">
            <path d="M7.04492 5.71875V8.67641H13.8469C13.9067 8.27135 14.1046 7.74719 14.1046 7.31327C14.1046 6.80618 14.0548 6.1868 13.9702 5.71875H7.04492Z" fill="#3086FF"/>
        </g>
        <g filter="url(#filter5_f_8319_2038)">
            <path d="M1.71307 2.27832C1.29332 2.7474 0.934719 3.27244 0.650394 3.84026C0.162599 4.81135 -0.104492 5.99194 -0.104492 7.14901C-0.104492 7.16532 -0.103171 7.18127 -0.103064 7.19755C0.112965 7.62061 2.88099 7.5396 3.02051 7.19755C3.02034 7.18159 3.01858 7.16603 3.01858 7.15003C3.01858 6.67545 3.09708 6.32565 3.24016 5.8966C3.41668 5.36737 3.69306 4.88001 4.04648 4.46012C4.12659 4.35565 4.34029 4.13107 4.40263 3.99636C4.42638 3.94505 4.35952 3.91625 4.35578 3.89819C4.35159 3.87799 4.26194 3.89423 4.24186 3.87918C4.17809 3.83141 4.05181 3.80646 3.97512 3.78428C3.81122 3.73688 3.53959 3.63235 3.38872 3.524C2.91182 3.18148 2.16757 2.77235 1.71307 2.27832Z" fill="url(#paint4_radial_8319_2038)"/>
        </g>
        <g filter="url(#filter6_f_8319_2038)">
            <path d="M3.39927 3.90022C4.50516 4.58443 4.82319 3.55486 5.55845 3.23269L4.27944 0.523682C3.80895 0.725654 3.36443 0.976587 2.95198 1.26978C2.33603 1.70764 1.7921 2.24196 1.34277 2.85002L3.39927 3.90022Z" fill="url(#paint5_radial_8319_2038)"/>
        </g>
        <g filter="url(#filter7_f_8319_2038)">
            <path d="M3.84917 10.8118C2.36466 11.3591 2.13225 11.3788 1.99561 12.3184C2.25673 12.5787 2.5373 12.8194 2.83544 13.0377C3.63545 13.6235 5.17432 14.4035 7.14239 14.4035C7.1447 14.4035 7.14691 14.4033 7.14922 14.4033V11.3603C7.14773 11.3603 7.14602 11.3604 7.14453 11.3604C6.40756 11.3604 5.81864 11.1627 5.21482 10.8189C5.06594 10.7341 4.79584 10.9617 4.65854 10.86C4.46916 10.7196 4.01342 10.9809 3.84917 10.8118Z" fill="url(#paint6_radial_8319_2038)"/>
        </g>
        <g opacity="0.5" filter="url(#filter8_f_8319_2038)">
            <path d="M6.27979 11.2644V14.3506C6.55515 14.3835 6.84173 14.4035 7.14236 14.4035C7.44373 14.4035 7.73528 14.3877 8.01859 14.3586V11.2852C7.7011 11.3406 7.40208 11.3604 7.1445 11.3604C6.84783 11.3604 6.55933 11.3251 6.27979 11.2644Z" fill="url(#paint7_linear_8319_2038)"/>
        </g>
    </g>
    <defs>
        <filter id="filter0_f_8319_2038" x="-0.134582" y="7.16596" width="5.49963" height="5.10437" filterUnits="userSpaceOnUse" color-interpolation-filters="sRGB">
            <feFlood flood-opacity="0" result="BackgroundImageFix"/>
            <feBlend mode="normal" in="SourceGraphic" in2="BackgroundImageFix" result="shape"/>
            <feGaussianBlur stdDeviation="0.0157773" result="effect1_foregroundBlur_8319_2038"/>
        </filter>
        <filter id="filter1_f_8319_2038" x="6.91913" y="-0.0835565" width="5.10046" height="4.07825" filterUnits="userSpaceOnUse" color-interpolation-filters="sRGB">
            <feFlood flood-opacity="0" result="BackgroundImageFix"/>
            <feBlend mode="normal" in="SourceGraphic" in2="BackgroundImageFix" result="shape"/>
            <feGaussianBlur stdDeviation="0.0157773" result="effect1_foregroundBlur_8319_2038"/>
        </filter>
        <filter id="filter2_f_8319_2038" x="1.64179" y="-0.0925897" width="5.59143" height="4.5321" filterUnits="userSpaceOnUse" color-interpolation-filters="sRGB">
            <feFlood flood-opacity="0" result="BackgroundImageFix"/>
            <feBlend mode="normal" in="SourceGraphic" in2="BackgroundImageFix" result="shape"/>
            <feGaussianBlur stdDeviation="0.0157773" result="effect1_foregroundBlur_8319_2038"/>
        </filter>
        <filter id="filter3_f_8319_2038" x="6.46625" y="7.28168" width="7.65735" height="7.14245" filterUnits="userSpaceOnUse" color-interpolation-filters="sRGB">
            <feFlood flood-opacity="0" result="BackgroundImageFix"/>
            <feBlend mode="normal" in="SourceGraphic" in2="BackgroundImageFix" result="shape"/>
            <feGaussianBlur stdDeviation="0.0157773" result="effect1_foregroundBlur_8319_2038"/>
        </filter>
        <filter id="filter4_f_8319_2038" x="7.01337" y="5.6872" width="7.12268" height="3.02087" filterUnits="userSpaceOnUse" color-interpolation-filters="sRGB">
            <feFlood flood-opacity="0" result="BackgroundImageFix"/>
            <feBlend mode="normal" in="SourceGraphic" in2="BackgroundImageFix" result="shape"/>
            <feGaussianBlur stdDeviation="0.0157773" result="effect1_foregroundBlur_8319_2038"/>
        </filter>
        <filter id="filter5_f_8319_2038" x="-0.136047" y="2.24677" width="4.57532" height="5.27014" filterUnits="userSpaceOnUse" color-interpolation-filters="sRGB">
            <feFlood flood-opacity="0" result="BackgroundImageFix"/>
            <feBlend mode="normal" in="SourceGraphic" in2="BackgroundImageFix" result="shape"/>
            <feGaussianBlur stdDeviation="0.0157773" result="effect1_foregroundBlur_8319_2038"/>
        </filter>
        <filter id="filter6_f_8319_2038" x="1.12093" y="0.30184" width="4.65926" height="4.05013" filterUnits="userSpaceOnUse" color-interpolation-filters="sRGB">
            <feFlood flood-opacity="0" result="BackgroundImageFix"/>
            <feBlend mode="normal" in="SourceGraphic" in2="BackgroundImageFix" result="shape"/>
            <feGaussianBlur stdDeviation="0.110921" result="effect1_foregroundBlur_8319_2038"/>
        </filter>
        <filter id="filter7_f_8319_2038" x="1.96405" y="10.768" width="5.21667" height="3.66711" filterUnits="userSpaceOnUse" color-interpolation-filters="sRGB">
            <feFlood flood-opacity="0" result="BackgroundImageFix"/>
            <feBlend mode="normal" in="SourceGraphic" in2="BackgroundImageFix" result="shape"/>
            <feGaussianBlur stdDeviation="0.0157773" result="effect1_foregroundBlur_8319_2038"/>
        </filter>
        <filter id="filter8_f_8319_2038" x="6.24823" y="11.2328" width="1.80188" height="3.20227" filterUnits="userSpaceOnUse" color-interpolation-filters="sRGB">
            <feFlood flood-opacity="0" result="BackgroundImageFix"/>
            <feBlend mode="normal" in="SourceGraphic" in2="BackgroundImageFix" result="shape"/>
            <feGaussianBlur stdDeviation="0.0157773" result="effect1_foregroundBlur_8319_2038"/>
        </filter>
        <radialGradient id="paint0_radial_8319_2038" cx="0" cy="0" r="1" gradientUnits="userSpaceOnUse" gradientTransform="translate(5.26811 12.1314) rotate(-92.3395) scale(7.12688 10.4685)">
            <stop offset="0.141612" stop-color="#1ABD4D"/>
            <stop offset="0.247515" stop-color="#6EC30D"/>
            <stop offset="0.311547" stop-color="#8AC502"/>
            <stop offset="0.366013" stop-color="#A2C600"/>
            <stop offset="0.445673" stop-color="#C8C903"/>
            <stop offset="0.540305" stop-color="#EBCB03"/>
            <stop offset="0.615636" stop-color="#F7CD07"/>
            <stop offset="0.699345" stop-color="#FDCD04"/>
            <stop offset="0.771242" stop-color="#FDCE05"/>
            <stop offset="0.860566" stop-color="#FFCE0A"/>
        </radialGradient>
        <radialGradient id="paint1_radial_8319_2038" cx="0" cy="0" r="1" gradientTransform="matrix(4.94064 -1.21279e-05 -6.94427e-06 6.38057 11.7921 3.81164)" gradientUnits="userSpaceOnUse">
            <stop offset="0.408458" stop-color="#FB4E5A"/>
            <stop offset="1" stop-color="#FF4540"/>
        </radialGradient>
        <radialGradient id="paint2_radial_8319_2038" cx="0" cy="0" r="1" gradientUnits="userSpaceOnUse" gradientTransform="translate(9.09416 -0.984645) rotate(151.02) scale(7.91301 10.7379)">
            <stop offset="0.231273" stop-color="#FF4541"/>
            <stop offset="0.311547" stop-color="#FF4540"/>
            <stop offset="0.457516" stop-color="#FF4640"/>
            <stop offset="0.540305" stop-color="#FF473F"/>
            <stop offset="0.699346" stop-color="#FF5138"/>
            <stop offset="0.771242" stop-color="#FF5B33"/>
            <stop offset="0.860566" stop-color="#FF6C29"/>
            <stop offset="1" stop-color="#FF8C18"/>
        </radialGradient>
        <radialGradient id="paint3_radial_8319_2038" cx="0" cy="0" r="1" gradientUnits="userSpaceOnUse" gradientTransform="translate(7.25223 13.4672) rotate(-127.454) scale(20.6431 7.61987)">
            <stop offset="0.131546" stop-color="#0CBA65"/>
            <stop offset="0.209784" stop-color="#0BB86D"/>
            <stop offset="0.297297" stop-color="#09B479"/>
            <stop offset="0.396257" stop-color="#08AD93"/>
            <stop offset="0.477124" stop-color="#0AA6A9"/>
            <stop offset="0.568425" stop-color="#0D9CC6"/>
            <stop offset="0.667385" stop-color="#1893DD"/>
            <stop offset="0.768727" stop-color="#258BF1"/>
            <stop offset="0.858506" stop-color="#3086FF"/>
        </radialGradient>
        <radialGradient id="paint4_radial_8319_2038" cx="0" cy="0" r="1" gradientUnits="userSpaceOnUse" gradientTransform="translate(6.53565 1.28937) rotate(96.6178) scale(7.70868 10.6586)">
            <stop offset="0.366013" stop-color="#FF4E3A"/>
            <stop offset="0.457516" stop-color="#FF8A1B"/>
            <stop offset="0.540305" stop-color="#FFA312"/>
            <stop offset="0.615636" stop-color="#FFB60C"/>
            <stop offset="0.771242" stop-color="#FFCD0A"/>
            <stop offset="0.860566" stop-color="#FECF0A"/>
            <stop offset="0.915033" stop-color="#FECF08"/>
            <stop offset="1" stop-color="#FDCD01"/>
        </radialGradient>
        <radialGradient id="paint5_radial_8319_2038" cx="0" cy="0" r="1" gradientUnits="userSpaceOnUse" gradientTransform="translate(5.28665 1.20996) rotate(132.119) scale(3.82884 10.7994)">
            <stop offset="0.315904" stop-color="#FF4C3C"/>
            <stop offset="0.603818" stop-color="#FF692C"/>
            <stop offset="0.726837" stop-color="#FF7825"/>
            <stop offset="0.884534" stop-color="#FF8D1B"/>
            <stop offset="1" stop-color="#FF9F13"/>
        </radialGradient>
        <radialGradient id="paint6_radial_8319_2038" cx="0" cy="0" r="1" gradientUnits="userSpaceOnUse" gradientTransform="translate(9.094 15.2837) rotate(-151.02) scale(7.91301 10.7379)">
            <stop offset="0.231273" stop-color="#0FBC5F"/>
            <stop offset="0.311547" stop-color="#0FBC5F"/>
            <stop offset="0.366013" stop-color="#0FBC5E"/>
            <stop offset="0.457516" stop-color="#0FBC5D"/>
            <stop offset="0.540305" stop-color="#12BC58"/>
            <stop offset="0.699346" stop-color="#28BF3C"/>
            <stop offset="0.771242" stop-color="#38C02B"/>
            <stop offset="0.860566" stop-color="#52C218"/>
            <stop offset="0.915033" stop-color="#67C30F"/>
            <stop offset="1" stop-color="#86C504"/>
        </radialGradient>
        <linearGradient id="paint7_linear_8319_2038" x1="6.27979" y1="12.8339" x2="8.01859" y2="12.8339" gradientUnits="userSpaceOnUse">
            <stop stop-color="#0FBC5C"/>
            <stop offset="1" stop-color="#0CBA65"/>
        </linearGradient>
    </defs>
</svg>
